# xmcd CD database file
#
# Track frame offsets:
#	150
#	14530
#	33157
#	48410
#	65627
#	83480
#	100337
#	121215
#	134972
#	152667
#	169227
#	186857
#
# Disc length: 2852 seconds
#
# Revision: 0
# Processed by: cddbd v1.5PL3 Copyright (c) Steve Scherf et al.
# Submitted via: CDex 1.51
#
DISCID=a10b220c
DTITLE=Syun Komatsubara - Treasures
DYEAR=2003
DGENRE=New Age
TTITLE0=Fragile
TTITLE1=Kujira
TTITLE2=Bunmeikaika
TTITLE3=Hashiru Entotsu
TTITLE4=Tou-Gen-Kyou
TTITLE5=Mother and Father
TTITLE6=Takeru
TTITLE7=Voyager
TTITLE8=Hiroshige
TTITLE9=Camel
TTITLE10=Stessel's Piano
TTITLE11=Love Song
EXTD=YEAR: 2003
EXTT0=
EXTT1=
EXTT2=
EXTT3=
EXTT4=
EXTT5=
EXTT6=
EXTT7=
EXTT8=
EXTT9=
EXTT10=
EXTT11=
PLAYORDER=
